<?xml version="1.0"?>
<svg xmlns="http://www.w3.org/2000/svg" viewBox="0 0 26 26" enable-background="new 0 0 26 26">
    <path style="text-indent:0;text-align:start;line-height:normal;text-transform:none;block-progression:tb;-inkscape-font-specification:Bitstream Vera Sans" d="M 13 0 C 10.2 0 8 2.2 8 5 C 8 5.5 8.1125 6.09375 8.3125 6.59375 C 10.5125 6.89375 12.1 7.5125 13 7.8125 C 13.9 7.4125 15.4875 6.9 17.6875 6.5 C 17.8875 6.1 18 5.5 18 5 C 18 2.2 15.8 0 13 0 z M 1.8125 7 A 1.0001 1.0001 0 0 0 1 8 L 1 12 C 0.4 12 0 12.4 0 13 L 0 16 C 0 16.6 0.4 17 1 17 L 2 17 C 3.1 17 4 16.1 4 15 L 4 14 C 4 13.263455 3.5968777 12.628312 3 12.28125 L 3 9.0625 C 8.4478282 9.2288307 11.358551 10.424727 12 10.71875 L 12 23.34375 C 10.514221 22.48769 7.8235306 21.304277 3 21.09375 L 3 18.09375 L 1 18.09375 L 1 22 A 1.0001 1.0001 0 0 0 2 23 C 8.6309937 23 12.122663 25.574215 12.3125 25.71875 A 1.0001 1.0001 0 0 0 12.46875 25.84375 A 1.0001 1.0001 0 0 0 12.53125 25.875 A 1.0001 1.0001 0 0 0 12.71875 25.96875 A 1.0001 1.0001 0 0 0 12.8125 26 A 1.0001 1.0001 0 0 0 12.84375 26 A 1.0001 1.0001 0 0 0 12.9375 26 A 1.0001 1.0001 0 0 0 13.125 26 A 1.0001 1.0001 0 0 0 13.40625 25.90625 A 1.0001 1.0001 0 0 0 13.5 25.875 A 1.0001 1.0001 0 0 0 13.59375 25.8125 A 1.0001 1.0001 0 0 0 13.625 25.78125 A 1.0001 1.0001 0 0 0 13.75 25.6875 C 14.08368 25.438963 17.518859 23 24 23 A 1.0001 1.0001 0 0 0 25 22 L 25 18.09375 L 23 18.09375 L 23 21.09375 C 18.176469 21.304277 15.485779 22.48769 14 23.34375 L 14 10.71875 C 14.641449 10.424727 17.552172 9.2288307 23 9.0625 L 23 12.28125 C 22.403122 12.628312 22 13.263455 22 14 L 22 15 C 22 16.1 22.9 17 24 17 L 25 17 C 25.6 17 26 16.6 26 16 L 26 13 C 26 12.4 25.6 12 25 12 L 25 8 A 1.0001 1.0001 0 0 0 24 7 C 17.826109 7 14.008731 8.4697911 13 8.90625 C 11.99127 8.4697911 8.1738916 7 2 7 A 1.0001 1.0001 0 0 0 1.90625 7 A 1.0001 1.0001 0 0 0 1.8125 7 z" overflow="visible" enable-background="accumulate" font-family="Bitstream Vera Sans"/>
</svg>
